<svg width="584" height="275" viewBox="0 0 584 275" fill="none" xmlns="http://www.w3.org/2000/svg">
<path d="M136.709 196.655C136.955 191.902 138.247 187.693 140.586 184.028C142.927 180.317 145.993 177.485 149.786 175.531C153.625 173.58 157.805 172.721 162.325 172.955C167.638 173.229 172.209 174.75 176.038 177.518C179.867 180.285 182.569 184.07 184.144 188.871L176.524 188.477C175.324 185.471 173.483 183.11 171.002 181.393C168.567 179.679 165.579 178.73 162.037 178.547C158.635 178.371 155.541 179.006 152.756 180.451C149.971 181.896 147.734 184.047 146.045 186.904C144.357 189.714 143.413 193.076 143.211 196.991C143.011 200.859 143.604 204.301 144.991 207.316C146.379 210.285 148.384 212.632 151.006 214.356C153.627 216.08 156.639 217.03 160.041 217.206C163.583 217.388 166.652 216.776 169.248 215.368C171.893 213.916 173.967 211.756 175.47 208.89L183.09 209.283C181.032 213.85 177.956 217.313 173.862 219.672C169.771 221.984 165.069 223.003 159.756 222.728C155.235 222.495 151.165 221.233 147.545 218.944C143.973 216.61 141.213 213.5 139.265 209.614C137.316 205.729 136.464 201.409 136.709 196.655ZM208.502 225.455C204.914 225.27 201.693 224.286 198.841 222.503C196.036 220.723 193.872 218.298 192.348 215.229C190.873 212.115 190.238 208.578 190.443 204.616C190.645 200.702 191.662 197.296 193.493 194.4C195.374 191.46 197.824 189.273 200.841 187.84C203.862 186.361 207.189 185.715 210.825 185.902C214.46 186.09 217.703 187.075 220.555 188.858C223.409 190.594 225.598 192.997 227.122 196.066C228.693 199.138 229.376 202.655 229.171 206.616C228.966 210.577 227.901 214.027 225.973 216.965C224.095 219.858 221.622 222.044 218.555 223.521C215.488 224.998 212.137 225.643 208.502 225.455ZM208.791 219.863C211.075 219.981 213.246 219.555 215.305 218.587C217.365 217.618 219.056 216.094 220.378 214.012C221.747 211.934 222.511 209.356 222.67 206.28C222.828 203.204 222.357 200.563 221.256 198.357C220.155 196.15 218.653 194.484 216.748 193.358C214.846 192.185 212.753 191.539 210.47 191.421C208.139 191.301 205.968 191.726 203.955 192.697C201.991 193.624 200.372 195.129 199.096 197.213C197.82 199.296 197.103 201.876 196.944 204.952C196.783 208.075 197.206 210.737 198.214 212.938C199.268 215.142 200.723 216.829 202.579 218C204.437 219.124 206.507 219.745 208.791 219.863ZM284.625 189.643C287.608 189.797 290.232 190.563 292.497 191.942C294.765 193.274 296.511 195.21 297.735 197.749C298.959 200.289 299.479 203.33 299.296 206.872L298.131 229.452L291.839 229.127L292.958 207.456C293.155 203.634 292.35 200.672 290.543 198.57C288.785 196.423 286.298 195.266 283.082 195.1C279.773 194.929 277.084 195.865 275.016 197.908C272.951 199.904 271.814 202.906 271.607 206.914L270.517 228.026L264.226 227.701L265.345 206.03C265.542 202.209 264.737 199.247 262.93 197.144C261.171 194.997 258.684 193.841 255.469 193.675C252.16 193.504 249.471 194.44 247.403 196.483C245.337 198.479 244.201 201.481 243.994 205.489L242.904 226.601L236.543 226.272L238.521 187.963L244.882 188.292L244.597 193.814C245.959 191.875 247.716 190.424 249.868 189.46C252.068 188.499 254.449 188.085 257.012 188.217C260.228 188.383 263.033 189.252 265.429 190.824C267.824 192.397 269.556 194.612 270.623 197.471C271.835 194.823 273.714 192.818 276.261 191.454C278.808 190.09 281.596 189.486 284.625 189.643ZM344.519 193.436L342.541 231.745L336.179 231.416L336.472 225.754C335.159 227.649 333.378 229.099 331.13 230.104C328.931 231.065 326.526 231.479 323.917 231.344C320.934 231.19 318.285 230.446 315.971 229.111C313.659 227.73 311.868 225.769 310.597 223.226C309.373 220.687 308.853 217.646 309.036 214.104L310.194 191.664L316.486 191.988L315.371 213.59C315.176 217.365 315.981 220.327 317.786 222.476C319.593 224.579 322.151 225.715 325.46 225.886C328.862 226.062 331.596 225.152 333.662 223.156C335.727 221.159 336.864 218.157 337.071 214.149L338.157 193.107L344.519 193.436ZM373.961 194.255C378.621 194.496 382.323 196.112 385.066 199.104C387.811 202.049 389.046 206.179 388.772 211.492L387.606 234.071L381.314 233.747L382.433 212.076C382.631 208.254 381.826 205.292 380.018 203.189C378.213 201.04 375.656 199.88 372.348 199.709C368.992 199.536 366.258 200.446 364.146 202.44C362.08 204.436 360.944 207.438 360.737 211.446L359.643 232.628L353.282 232.299L355.26 193.99L361.621 194.319L361.34 199.772C362.699 197.879 364.478 196.452 366.677 195.491C368.923 194.532 371.351 194.12 373.961 194.255ZM403.582 190.247C402.371 190.184 401.367 189.712 400.571 188.83C399.776 187.948 399.409 186.901 399.472 185.689C399.534 184.477 400.007 183.474 400.889 182.678C401.771 181.882 402.818 181.516 404.03 181.578C405.195 181.639 406.152 182.109 406.901 182.988C407.697 183.871 408.063 184.918 408.001 186.129C407.938 187.341 407.466 188.345 406.583 189.14C405.748 189.938 404.747 190.307 403.582 190.247ZM406.337 196.627L404.359 234.936L397.998 234.608L399.975 196.299L406.337 196.627ZM413.821 216.079C414.023 212.164 414.992 208.78 416.728 205.926C418.467 203.025 420.753 200.83 423.587 199.34C426.467 197.854 429.632 197.199 433.08 197.377C436.063 197.531 438.8 198.374 441.291 199.904C443.785 201.388 445.649 203.283 446.885 205.59L447.932 185.317L454.363 185.649L451.693 237.38L445.261 237.048L445.633 229.848C444.257 232.066 442.295 233.858 439.748 235.221C437.203 236.539 434.277 237.112 430.968 236.941C427.566 236.765 424.51 235.767 421.8 233.944C419.137 232.125 417.091 229.659 415.663 226.548C414.235 223.437 413.621 219.947 413.821 216.079ZM446.254 217.824C446.403 214.934 445.95 212.388 444.896 210.184C443.841 207.98 442.341 206.267 440.395 205.045C438.498 203.779 436.361 203.084 433.984 202.961C431.607 202.839 429.411 203.286 427.396 204.303C425.381 205.321 423.735 206.871 422.459 208.955C421.184 211.039 420.471 213.525 420.322 216.415C420.17 219.351 420.621 221.944 421.673 224.195C422.727 226.399 424.203 228.134 426.1 229.4C428 230.62 430.138 231.291 432.515 231.413C434.892 231.536 437.088 231.089 439.103 230.071C441.167 229.01 442.837 227.437 444.113 225.353C445.391 223.223 446.105 220.713 446.254 217.824ZM461.062 218.518C461.264 214.603 462.234 211.219 463.97 208.365C465.708 205.464 467.995 203.269 470.828 201.78C473.709 200.293 476.85 199.637 480.252 199.813C483.608 199.986 486.483 200.859 488.879 202.431C491.274 204.003 493.021 205.916 494.12 208.169L494.481 201.178L500.912 201.51L498.934 239.819L492.503 239.487L492.871 232.357C491.497 234.529 489.514 236.296 486.92 237.657C484.375 238.974 481.449 239.547 478.14 239.377C474.737 239.201 471.705 238.203 469.042 236.383C466.379 234.564 464.333 232.098 462.905 228.987C461.477 225.876 460.863 222.386 461.062 218.518ZM493.496 220.263C493.645 217.373 493.192 214.827 492.138 212.623C491.083 210.419 489.583 208.706 487.637 207.484C485.739 206.218 483.602 205.523 481.226 205.4C478.849 205.278 476.653 205.725 474.638 206.743C472.622 207.76 470.977 209.311 469.701 211.394C468.425 213.478 467.713 215.964 467.564 218.854C467.412 221.79 467.862 224.383 468.914 226.634C469.969 228.838 471.445 230.573 473.342 231.839C475.241 233.059 477.38 233.73 479.757 233.853C482.133 233.975 484.329 233.528 486.345 232.51C488.409 231.449 490.079 229.876 491.354 227.792C492.633 225.662 493.346 223.152 493.496 220.263ZM508.304 220.957C508.506 217.043 509.475 213.658 511.212 210.804C512.95 207.903 515.236 205.708 518.07 204.219C520.951 202.732 524.115 202.077 527.564 202.255C530.547 202.409 533.284 203.252 535.775 204.782C538.268 206.266 540.133 208.161 541.369 210.468L542.416 190.195L548.847 190.527L546.176 242.258L539.745 241.926L540.117 234.726C538.74 236.945 536.779 238.736 534.232 240.1C531.687 241.417 528.76 241.99 525.451 241.819C522.049 241.644 518.993 240.645 516.284 238.823C513.621 237.003 511.575 234.537 510.147 231.426C508.719 228.315 508.104 224.825 508.304 220.957ZM540.737 222.702C540.886 219.812 540.434 217.266 539.379 215.062C538.325 212.858 536.825 211.145 534.878 209.923C532.981 208.657 530.844 207.962 528.467 207.839C526.09 207.717 523.894 208.164 521.879 209.182C519.864 210.199 518.219 211.75 516.943 213.833C515.667 215.917 514.955 218.403 514.805 221.293C514.654 224.229 515.104 226.822 516.156 229.073C517.211 231.277 518.686 233.012 520.584 234.278C522.483 235.498 524.621 236.169 526.998 236.292C529.375 236.414 531.571 235.967 533.586 234.949C535.65 233.888 537.32 232.315 538.596 230.232C539.874 228.101 540.588 225.591 540.737 222.702Z" fill="black"/>
<path d="M53.76 141L35.072 107.08H29.824V141H7.936V51.144H44.672C51.7547 51.144 57.7707 52.3813 62.72 54.856C67.7547 57.3307 71.5093 60.744 73.984 65.096C76.4587 69.3627 77.696 74.1413 77.696 79.432C77.696 85.4053 75.9893 90.7387 72.576 95.432C69.248 100.125 64.2987 103.453 57.728 105.416L78.464 141H53.76ZM29.824 91.592H43.392C47.4027 91.592 50.3893 90.6107 52.352 88.648C54.4 86.6853 55.424 83.912 55.424 80.328C55.424 76.9147 54.4 74.2267 52.352 72.264C50.3893 70.3013 47.4027 69.32 43.392 69.32H29.824V91.592ZM158.764 104.136C158.764 106.184 158.636 108.317 158.38 110.536H108.844C109.185 114.973 110.593 118.387 113.068 120.776C115.628 123.08 118.743 124.232 122.412 124.232C127.873 124.232 131.671 121.928 133.804 117.32H157.1C155.905 122.013 153.729 126.237 150.572 129.992C147.5 133.747 143.617 136.691 138.924 138.824C134.231 140.957 128.983 142.024 123.18 142.024C116.183 142.024 109.953 140.531 104.492 137.544C99.0307 134.557 94.764 130.291 91.692 124.744C88.62 119.197 87.084 112.712 87.084 105.288C87.084 97.864 88.5773 91.3787 91.564 85.832C94.636 80.2853 98.9027 76.0187 104.364 73.032C109.825 70.0453 116.097 68.552 123.18 68.552C130.092 68.552 136.236 70.0027 141.612 72.904C146.988 75.8053 151.169 79.944 154.156 85.32C157.228 90.696 158.764 96.968 158.764 104.136ZM136.364 98.376C136.364 94.6213 135.084 91.6347 132.524 89.416C129.964 87.1973 126.764 86.088 122.924 86.088C119.255 86.088 116.14 87.1547 113.58 89.288C111.105 91.4213 109.569 94.4507 108.972 98.376H136.364ZM165.959 105.16C165.959 97.8213 167.324 91.3787 170.055 85.832C172.871 80.2853 176.668 76.0187 181.447 73.032C186.226 70.0453 191.559 68.552 197.447 68.552C202.14 68.552 206.407 69.5333 210.247 71.496C214.172 73.4587 217.244 76.104 219.463 79.432V46.28H241.351V141H219.463V130.76C217.415 134.173 214.471 136.904 210.631 138.952C206.876 141 202.482 142.024 197.447 142.024C191.559 142.024 186.226 140.531 181.447 137.544C176.668 134.472 172.871 130.163 170.055 124.616C167.324 118.984 165.959 112.499 165.959 105.16ZM219.463 105.288C219.463 99.8267 217.927 95.5173 214.855 92.36C211.868 89.2027 208.199 87.624 203.847 87.624C199.495 87.624 195.783 89.2027 192.711 92.36C189.724 95.432 188.231 99.6987 188.231 105.16C188.231 110.621 189.724 114.973 192.711 118.216C195.783 121.373 199.495 122.952 203.847 122.952C208.199 122.952 211.868 121.373 214.855 118.216C217.927 115.059 219.463 110.749 219.463 105.288Z" fill="#184656"/>
<rect x="121.945" y="145.575" width="461" height="103.987" rx="18.5" transform="rotate(2.96 121.945 145.575)" stroke="black" stroke-width="3"/>
</svg>
