<svg width="46" height="46" viewBox="0 0 46 46" fill="none" xmlns="http://www.w3.org/2000/svg">
<mask id="mask0_674_4024" style="mask-type:alpha" maskUnits="userSpaceOnUse" x="0" y="0" width="46" height="46">
<rect x="0.901428" y="0.0280762" width="45.0704" height="45.0704" fill="#D9D9D9"/>
</mask>
<g mask="url(#mask0_674_4024)">
<path d="M27.1925 20.6853C28.7574 20.6853 30.0877 20.1376 31.1831 19.0422C32.2786 17.9467 32.8263 16.6165 32.8263 15.0515C32.8263 13.4866 32.2786 12.1564 31.1831 11.0609C30.0877 9.96547 28.7574 9.41774 27.1925 9.41774C25.6276 9.41774 24.2974 9.96547 23.2019 11.0609C22.1064 12.1564 21.5587 13.4866 21.5587 15.0515C21.5587 16.6165 22.1064 17.9467 23.2019 19.0422C24.2974 20.1376 25.6276 20.6853 27.1925 20.6853ZM15.9249 29.6055C17.3333 27.9467 19.0235 26.6713 20.9953 25.7792C22.9671 24.8872 25.0329 24.4412 27.1925 24.4412C29.3521 24.4412 31.4179 24.8872 33.3897 25.7792C35.3615 26.6713 37.0517 27.9467 38.4601 29.6055V7.5398H15.9249V29.6055ZM15.9249 33.8309C14.892 33.8309 14.0078 33.4631 13.2723 32.7276C12.5368 31.9921 12.169 31.1079 12.169 30.075V7.5398C12.169 6.50694 12.5368 5.62275 13.2723 4.88722C14.0078 4.1517 14.892 3.78394 15.9249 3.78394H38.4601C39.493 3.78394 40.3772 4.1517 41.1127 4.88722C41.8482 5.62275 42.216 6.50694 42.216 7.5398V30.075C42.216 31.1079 41.8482 31.9921 41.1127 32.7276C40.3772 33.4631 39.493 33.8309 38.4601 33.8309H15.9249ZM8.41316 41.3426C7.38029 41.3426 6.4961 40.9749 5.76057 40.2393C5.02505 39.5038 4.65729 38.6196 4.65729 37.5868V11.2957H8.41316V37.5868H34.7042V41.3426H8.41316ZM27.1925 16.9295C26.6604 16.9295 26.2144 16.7495 25.8545 16.3896C25.4945 16.0296 25.3146 15.5836 25.3146 15.0515C25.3146 14.5195 25.4945 14.0735 25.8545 13.7135C26.2144 13.3536 26.6604 13.1736 27.1925 13.1736C27.7246 13.1736 28.1706 13.3536 28.5305 13.7135C28.8905 14.0735 29.0704 14.5195 29.0704 15.0515C29.0704 15.5836 28.8905 16.0296 28.5305 16.3896C28.1706 16.7495 27.7246 16.9295 27.1925 16.9295ZM20.9953 30.075H33.3897C32.482 29.449 31.4961 28.9796 30.4319 28.6666C29.3678 28.3536 28.288 28.1971 27.1925 28.1971C26.097 28.1971 25.0172 28.3536 23.9531 28.6666C22.8889 28.9796 21.903 29.449 20.9953 30.075Z" fill="white"/>
</g>
</svg>
