<svg width="146" height="49" viewBox="0 0 146 49" fill="none" xmlns="http://www.w3.org/2000/svg">
<path d="M31.4278 30.3365C31.4908 29.117 31.8222 28.0372 32.4222 27.0971C33.0228 26.1451 33.8096 25.4185 34.7825 24.9173C35.7674 24.4167 36.8397 24.1963 37.9995 24.2562C39.3625 24.3265 40.5352 24.7168 41.5175 25.4268C42.4998 26.1369 43.1929 27.1077 43.5969 28.3394L41.642 28.2385C41.3342 27.4673 40.862 26.8615 40.2254 26.4211C39.6007 25.9812 38.8341 25.7378 37.9254 25.6909C37.0526 25.6459 36.259 25.8087 35.5445 26.1794C34.8301 26.5501 34.2561 27.1019 33.8227 27.8347C33.3899 28.5557 33.1475 29.4183 33.0957 30.4226C33.0445 31.415 33.1967 32.2979 33.5523 33.0716C33.9086 33.8332 34.423 34.4352 35.0955 34.8775C35.7679 35.3198 36.5406 35.5635 37.4134 35.6086C38.322 35.6555 39.1094 35.4983 39.7754 35.1371C40.454 34.7646 40.9861 34.2106 41.3717 33.4753L43.3265 33.5762C42.7985 34.7477 42.0094 35.6361 40.9591 36.2412C39.9095 36.8343 38.7032 37.0957 37.3402 37.0254C36.1805 36.9655 35.1362 36.6419 34.2075 36.0544C33.2914 35.4557 32.5833 34.6579 32.0833 33.661C31.5833 32.6642 31.3648 31.556 31.4278 30.3365Z" fill="#1E3756"/>
<path d="M49.8459 37.725C48.9253 37.6775 48.0991 37.425 47.3675 36.9677C46.6478 36.5109 46.0925 35.8888 45.7016 35.1014C45.3233 34.3027 45.1603 33.3951 45.2128 32.3789C45.2647 31.3746 45.5255 30.5009 45.9955 29.7579C46.478 29.0036 47.1063 28.4427 47.8806 28.075C48.6554 27.6955 49.5091 27.5297 50.4417 27.5779C51.3743 27.626 52.2064 27.8788 52.938 28.3361C53.6703 28.7815 54.2319 29.398 54.6228 30.1854C55.0257 30.9734 55.2009 31.8756 55.1484 32.8918C55.0959 33.9081 54.8225 34.7931 54.328 35.5468C53.8461 36.2891 53.2118 36.8498 52.425 37.2288C51.6382 37.6077 50.7785 37.7731 49.8459 37.725ZM49.92 36.2902C50.5058 36.3205 51.0629 36.2114 51.5912 35.9629C52.1195 35.7145 52.5533 35.3233 52.8926 34.7894C53.2438 34.256 53.4398 33.5948 53.4805 32.8057C53.5212 32.0166 53.4004 31.339 53.1179 30.773C52.8354 30.207 52.4499 29.7795 51.9613 29.4905C51.4734 29.1896 50.9365 29.024 50.3506 28.9938C49.7528 28.9629 49.1957 29.072 48.6794 29.3211C48.1756 29.5588 47.76 29.9449 47.4328 30.4795C47.1054 31.014 46.9214 31.6759 46.8807 32.465C46.8393 33.266 46.9479 33.949 47.2065 34.5138C47.477 35.0792 47.8502 35.5121 48.3263 35.8124C48.8029 36.1007 49.3341 36.26 49.92 36.2902Z" fill="#1E3756"/>
<path d="M69.3749 28.5374C70.1401 28.5769 70.8133 28.7735 71.3944 29.1272C71.9762 29.4689 72.4241 29.9656 72.7381 30.6172C73.0521 31.2687 73.1856 32.0489 73.1387 32.9575L72.8396 38.7503L71.2256 38.667L71.5126 33.1073C71.5632 32.1269 71.3567 31.367 70.893 30.8276C70.442 30.2768 69.8039 29.9802 68.979 29.9376C68.1301 29.8937 67.4403 30.1338 66.9098 30.6579C66.3798 31.17 66.0883 31.9402 66.0352 32.9684L65.7556 38.3846L64.1415 38.3012L64.4286 32.7416C64.4792 31.7612 64.2727 31.0013 63.809 30.4618C63.3579 29.9111 62.7199 29.6144 61.8949 29.5718C61.046 29.528 60.3563 29.7681 59.8257 30.2922C59.2958 30.8043 59.0043 31.5744 58.9512 32.6027L58.6716 38.0188L57.0396 37.9345L57.547 28.1066L59.179 28.1908L59.1058 29.6076C59.4552 29.1102 59.906 28.7379 60.4582 28.4906C61.0224 28.244 61.6333 28.1377 62.2909 28.1717C63.1159 28.2143 63.8356 28.4372 64.4502 28.8406C65.0647 29.244 65.5089 29.8123 65.7827 30.5458C66.0935 29.8665 66.5756 29.3519 67.229 29.0021C67.8825 28.6522 68.5978 28.4973 69.3749 28.5374Z" fill="#1E3756"/>
<path d="M84.7402 29.5105L84.2328 39.3385L82.6008 39.2543L82.6758 37.8016C82.339 38.2877 81.8822 38.6597 81.3055 38.9177C80.7413 39.1642 80.1244 39.2703 79.4549 39.2357C78.6897 39.1962 78.0102 39.0053 77.4165 38.6629C76.8234 38.3086 76.3639 37.8054 76.0379 37.1532C75.7239 36.5016 75.5904 35.7215 75.6373 34.8128L75.9345 29.0559L77.5486 29.1392L77.2625 34.6809C77.2125 35.6494 77.419 36.4093 77.882 36.9607C78.3457 37.5001 79.002 37.7917 79.8509 37.8356C80.7237 37.8806 81.425 37.6471 81.955 37.135C82.4849 36.6229 82.7764 35.8527 82.8295 34.8245L83.1082 29.4263L84.7402 29.5105Z" fill="#1E3756"/>
<path d="M92.2935 29.7207C93.4891 29.7824 94.4387 30.1971 95.1424 30.9647C95.8466 31.7203 96.1636 32.7797 96.0932 34.1427L95.7941 39.9354L94.18 39.8521L94.4671 34.2925C94.5177 33.3121 94.3112 32.5521 93.8475 32.0127C93.3845 31.4613 92.7285 31.1637 91.8796 31.1199C91.0188 31.0755 90.3174 31.309 89.7755 31.8205C89.2456 32.3326 88.954 33.1027 88.901 34.131L88.6204 39.565L86.9884 39.4808L87.4958 29.6528L89.1278 29.7371L89.0556 31.1359C89.4043 30.6505 89.8608 30.2844 90.425 30.0378C91.0011 29.7918 91.624 29.6861 92.2935 29.7207Z" fill="#1E3756"/>
<path d="M99.8927 28.6925C99.5819 28.6764 99.3244 28.5552 99.1203 28.3289C98.9162 28.1026 98.8222 27.834 98.8382 27.5231C98.8543 27.2123 98.9755 26.9548 99.2018 26.7507C99.4281 26.5466 99.6967 26.4526 100.008 26.4686C100.306 26.484 100.552 26.6046 100.744 26.8303C100.948 27.0566 101.042 27.3252 101.026 27.6361C101.01 27.9469 100.889 28.2044 100.663 28.4085C100.448 28.6132 100.192 28.7079 99.8927 28.6925ZM100.599 30.3293L100.092 40.1573L98.46 40.0731L98.9674 30.2451L100.599 30.3293Z" fill="#1E3756"/>
<path d="M102.519 35.3196C102.571 34.3153 102.82 33.447 103.265 32.7147C103.711 31.9705 104.298 31.4074 105.025 31.0254C105.764 30.6439 106.576 30.4761 107.46 30.5217C108.226 30.5612 108.928 30.7773 109.567 31.1699C110.206 31.5506 110.685 32.0369 111.002 32.6287L111.27 27.4277L112.92 27.5129L112.235 40.7843L110.585 40.6991L110.681 38.8519C110.328 39.421 109.824 39.8806 109.171 40.2305C108.518 40.5684 107.767 40.7154 106.918 40.6716C106.046 40.6265 105.262 40.3703 104.566 39.9028C103.883 39.436 103.358 38.8035 102.992 38.0053C102.626 37.2072 102.468 36.312 102.519 35.3196ZM110.84 35.7672C110.878 35.0259 110.762 34.3725 110.492 33.8071C110.221 33.2417 109.836 32.8022 109.337 32.4887C108.85 32.1639 108.302 31.9858 107.692 31.9543C107.082 31.9228 106.519 32.0376 106.002 32.2986C105.485 32.5596 105.063 32.9574 104.736 33.492C104.408 34.0265 104.225 34.6644 104.187 35.4057C104.148 36.1589 104.264 36.8242 104.534 37.4016C104.804 37.967 105.183 38.4122 105.67 38.737C106.157 39.0499 106.705 39.222 107.315 39.2535C107.925 39.285 108.488 39.1702 109.005 38.9092C109.535 38.6369 109.963 38.2334 110.291 37.6988C110.619 37.1523 110.802 36.5084 110.84 35.7672Z" fill="#1E3756"/>
<path d="M114.639 35.9453C114.691 34.941 114.939 34.0727 115.385 33.3405C115.831 32.5963 116.417 32.0331 117.144 31.6511C117.883 31.2697 118.689 31.1015 119.562 31.1465C120.423 31.191 121.161 31.4149 121.775 31.8182C122.39 32.2216 122.838 32.7123 123.12 33.2903L123.212 31.4968L124.862 31.582L124.355 41.41L122.705 41.3248L122.799 39.4955C122.447 40.0527 121.938 40.506 121.273 40.8553C120.62 41.1932 119.869 41.3402 119.02 41.2964C118.147 41.2513 117.369 40.9954 116.686 40.5285C116.003 40.0617 115.478 39.4292 115.112 38.6311C114.745 37.8329 114.588 36.9377 114.639 35.9453ZM122.96 36.3929C122.998 35.6516 122.882 34.9983 122.611 34.4328C122.341 33.8674 121.956 33.428 121.456 33.1145C120.97 32.7896 120.421 32.6115 119.812 32.58C119.202 32.5485 118.639 32.6633 118.122 32.9243C117.605 33.1853 117.183 33.5831 116.855 34.1177C116.528 34.6522 116.345 35.2901 116.307 36.0314C116.268 36.7847 116.383 37.45 116.653 38.0274C116.924 38.5928 117.302 39.0379 117.789 39.3627C118.277 39.6756 118.825 39.8478 119.435 39.8793C120.045 39.9107 120.608 39.796 121.125 39.5349C121.655 39.2626 122.083 38.8591 122.41 38.3246C122.738 37.7781 122.921 37.1342 122.96 36.3929Z" fill="#1E3756"/>
<path d="M126.759 36.5711C126.81 35.5667 127.059 34.6984 127.504 33.9662C127.95 33.222 128.537 32.6589 129.264 32.2768C130.003 31.8954 130.815 31.7275 131.7 31.7732C132.465 31.8127 133.167 32.0288 133.806 32.4214C134.446 32.8021 134.924 33.2883 135.241 33.8801L135.51 28.6792L137.16 28.7644L136.474 42.0357L134.825 41.9505L134.92 40.1033C134.567 40.6725 134.064 41.132 133.41 41.4819C132.757 41.8198 132.007 41.9669 131.158 41.9231C130.285 41.878 129.501 41.6217 128.806 41.1543C128.122 40.6874 127.598 40.0549 127.231 39.2568C126.865 38.4587 126.707 37.5634 126.759 36.5711ZM135.079 37.0186C135.117 36.2773 135.001 35.624 134.731 35.0586C134.46 34.4932 134.075 34.0537 133.576 33.7402C133.089 33.4154 132.541 33.2372 131.931 33.2057C131.322 33.1743 130.758 33.289 130.241 33.5501C129.724 33.8111 129.302 34.2089 128.975 34.7434C128.648 35.278 128.465 35.9159 128.426 36.6572C128.388 37.4104 128.503 38.0757 128.773 38.6531C129.043 39.2185 129.422 39.6636 129.909 39.9885C130.396 40.3013 130.945 40.4735 131.555 40.505C132.164 40.5365 132.728 40.4217 133.245 40.1607C133.774 39.8883 134.203 39.4849 134.53 38.9503C134.858 38.4038 135.041 37.7599 135.079 37.0186Z" fill="#1E3756"/>
<path d="M23.7227 41.2512L24.9162 18.1697L145.474 24.4035L144.281 47.485L23.7227 41.2512Z" stroke="#1E3756"/>
<path d="M11.2216 23.1954L6.64517 14.8889H5.36002V23.1954H0V1.19111H8.99605C10.7305 1.19111 12.2037 1.49412 13.4157 2.10012C14.6486 2.70613 15.5681 3.542 16.1741 4.60773C16.7801 5.65257 17.0831 6.82279 17.0831 8.11839C17.0831 9.58116 16.6652 10.8872 15.8293 12.0365C15.0143 13.1859 13.8023 14.0008 12.1933 14.4815L17.2712 23.1954H11.2216ZM5.36002 11.0962H8.6826C9.66475 11.0962 10.3961 10.8559 10.8768 10.3752C11.3783 9.89462 11.629 9.21547 11.629 8.33781C11.629 7.50194 11.3783 6.84369 10.8768 6.36306C10.3961 5.88244 9.66475 5.64213 8.6826 5.64213H5.36002V11.0962Z" fill="#F7BD22"/>
<path d="M36.9353 14.168C36.9353 14.6695 36.904 15.1919 36.8413 15.7353H24.7107C24.7943 16.8219 25.1391 17.6578 25.7451 18.2429C26.372 18.8071 27.1348 19.0892 28.0333 19.0892C29.3707 19.0892 30.3006 18.525 30.823 17.3966H36.5279C36.2353 18.5459 35.7024 19.5803 34.9293 20.4997C34.177 21.4192 33.2262 22.1401 32.0769 22.6625C30.9275 23.185 29.6424 23.4462 28.2214 23.4462C26.5079 23.4462 24.9824 23.0805 23.645 22.3491C22.3076 21.6177 21.2628 20.5729 20.5105 19.2146C19.7582 17.8563 19.3821 16.2681 19.3821 14.4501C19.3821 12.6321 19.7478 11.0439 20.4792 9.68565C21.2314 8.32736 22.2763 7.28252 23.6137 6.55113C24.9511 5.81975 26.487 5.45405 28.2214 5.45405C29.914 5.45405 31.4186 5.8093 32.7351 6.51979C34.0516 7.23028 35.0755 8.24377 35.8069 9.56027C36.5592 10.8768 36.9353 12.4127 36.9353 14.168ZM31.4499 12.7575C31.4499 11.838 31.1365 11.1066 30.5096 10.5633C29.8827 10.02 29.0991 9.74834 28.1587 9.74834C27.2602 9.74834 26.4974 10.0095 25.8705 10.532C25.2645 11.0544 24.8884 11.7962 24.7421 12.7575H31.4499Z" fill="#F7BD22"/>
<path d="M38.6973 14.4188C38.6973 12.6216 39.0316 11.0439 39.7003 9.68565C40.3899 8.32736 41.3198 7.28252 42.4901 6.55113C43.6603 5.81975 44.9663 5.45405 46.4082 5.45405C47.5575 5.45405 48.6024 5.69437 49.5427 6.17499C50.504 6.65562 51.2562 7.30342 51.7996 8.11839V0H57.1596V23.1954H51.7996V20.6878C51.298 21.5237 50.5771 22.1924 49.6367 22.6939C48.7173 23.1954 47.6411 23.4462 46.4082 23.4462C44.9663 23.4462 43.6603 23.0805 42.4901 22.3491C41.3198 21.5968 40.3899 20.5415 39.7003 19.1832C39.0316 17.804 38.6973 16.2159 38.6973 14.4188ZM51.7996 14.4501C51.7996 13.1127 51.4234 12.0574 50.6711 11.2842C49.9397 10.5111 49.0412 10.1245 47.9754 10.1245C46.9097 10.1245 46.0007 10.5111 45.2484 11.2842C44.517 12.0365 44.1513 13.0814 44.1513 14.4188C44.1513 15.7562 44.517 16.8219 45.2484 17.616C46.0007 18.3891 46.9097 18.7757 47.9754 18.7757C49.0412 18.7757 49.9397 18.3891 50.6711 17.616C51.4234 16.8428 51.7996 15.7875 51.7996 14.4501Z" fill="#F7BD22"/>
</svg>
